<svg height="512pt" viewBox="-48 0 512 512" width="512pt" xmlns="http://www.w3.org/2000/svg"><path d="m207.71875 77.914062c-71.574219 0-129.804688 58.230469-129.804688 129.804688 0 71.570312 58.230469 129.800781 129.804688 129.800781s129.800781-58.226562 129.800781-129.800781-58.226562-129.804688-129.800781-129.804688zm0 30.03125c49.910156 0 91.378906 36.839844 98.640625 84.757813h-19.605469l-20.421875-17.679687-16.117187 16.382812-33.808594-56.546875-37.988281 71.476563-26.125-35.0625-24.582031 21.425781h-18.636719c7.261719-47.914063 48.730469-84.753907 98.644531-84.753907zm0 199.542969c-49.914062 0-91.382812-36.839843-98.644531-84.753906h29.890625l8.621094-7.515625 35.085937 47.09375 35.273437-66.355469 26.425782 44.207031 23.605468-23.992187 7.582032 6.5625h30.800781c-7.261719 47.914063-48.730469 84.753906-98.640625 84.753906zm0 0"/><path d="m355.488281 62.046875c-39.339843-39.914063-91.6875-61.9492188-147.402343-62.046875h-.367188c-114.535156 0-207.71875 93.183594-207.71875 207.71875 0 20.875 3.09375 41.484375 9.191406 61.257812 8.765625 28.433594 24.472656 55.398438 45.417969 77.976563l153.109375 165.046875 153.203125-165.152344c19.609375-21.140625 34.136719-45.136718 43.183594-71.324218 7.222656-20.910157 11.027343-42.816407 11.3125-65.105469.710937-55.742188-20.570313-108.4375-59.929688-148.371094zm29.898438 147.988281c-.242188 19.078125-3.496094 37.8125-9.667969 55.6875-7.671875 22.21875-20.058594 42.640625-36.816406 60.703125l-131.183594 141.417969-131.09375-141.3125c-17.894531-19.292969-31.289062-42.253906-38.738281-66.402344-5.210938-16.90625-7.855469-34.539062-7.855469-52.410156 0-97.976562 79.710938-177.6875 177.6875-177.6875h.316406c47.628906.082031 92.398438 18.941406 126.0625 53.097656 33.683594 34.175782 51.898438 79.246094 51.289063 126.90625zm0 0"/></svg>